<svg xmlns="http://www.w3.org/2000/svg" viewBox="0 0 512.28 127.41"><defs><style>.cls-1{fill:#231f20;}.cls-2{fill:#3dae2b;}.cls-3{fill:#fff;}</style></defs><title>Asset 1</title><g id="Layer_2" data-name="Layer 2"><g id="Layer_1-2" data-name="Layer 1"><rect class="cls-1" width="127.41" height="127.41"/><rect class="cls-2" x="49.93" y="115.21" width="9.18" height="9.19"/><rect class="cls-2" x="66.86" y="115.21" width="9.18" height="9.19"/><rect class="cls-2" x="83.79" y="115.21" width="9.18" height="9.19"/><rect class="cls-2" x="100.73" y="115.21" width="9.18" height="9.19"/><polygon class="cls-3" points="3.01 3.01 3.01 124.39 40.3 124.39 40.3 119.75 7.66 119.75 7.66 7.66 119.75 7.66 119.75 124.4 119.75 124.39 124.4 124.39 124.4 3.01 3.01 3.01"/><path class="cls-3" d="M17.25,49.08H27l8.35,14.83h.16l-.41-14.83h9.34V78.33h-10l-8.1-14h-.16l.41,14H17.25Z"/><path class="cls-3" d="M59.55,60.36h8.92v8H59.59v9.92H49.93V49.08H69.67V57.3H59.55Z"/><path class="cls-3" d="M82.64,61.81l.46,16.52H73.93V49.08H86.79l5.29,15.74h.21l4.59-15.74h13.28V78.33h-9.59l.29-16.44-.25,0L95.16,78.33H88.22L82.85,61.81Z"/><path id="TM_Path" data-name="TM Path" class="cls-3" d="M112.9,76.32h-.7v-.39H114v.39h-.69v2h-.41Zm1.39-.39h.62l.61,1.68.61-1.68h.61v2.4h-.38v-2h0l-.69,2h-.28l-.7-2h0v2h-.39Z"/><rect class="cls-1" x="303.51" y="57.87" width="10.67" height="5.4"/><rect class="cls-1" x="206.49" y="107.02" width="7.34" height="7.34"/><rect class="cls-1" x="228.16" y="107.02" width="7.34" height="7.34"/><rect class="cls-1" x="249.84" y="107.02" width="7.34" height="7.34"/><rect class="cls-1" x="271.51" y="107.02" width="7.34" height="7.34"/><rect class="cls-1" x="288.84" y="103.55" width="220.38" height="12.73"/><path class="cls-1" d="M509.84,62H509v1.13h.84a.58.58,0,0,0,.55-.55.58.58,0,0,0-.55-.58m.5,2.71-.79-1.21H509v1.21h-.41V61.68h1.25a.92.92,0,0,1,1,.93.88.88,0,0,1-.78.9l.82,1.23Zm-.73-3.84a2.3,2.3,0,0,0-2.31,2.3,2.31,2.31,0,1,0,2.31-2.3m0,5a2.67,2.67,0,1,1,2.67-2.67,2.68,2.68,0,0,1-2.67,2.67"/><path class="cls-1" d="M414.67,57.88h14.2q1.36,9.45,2.71,18.9h.19c.13-.94.27-1.87.39-2.81q1-7.74,1.95-15.48c.05-.43.12-.68.65-.68,4.48,0,9,0,13.45,0a1.3,1.3,0,0,1,.23.06v42.16H439V72.71l-.22,0q-1.84,13.68-3.69,27.38h-6.82q-1.93-13.35-3.88-26.69h-.19v26.68h-9.52Z"/><path class="cls-1" d="M227.31,65.51h10.53v1c0,7.38,0,14.76,0,22.14,0,1.47.08,2.94.15,4.42.05,1,.52,1.5,1.49,1.51s1.43-.44,1.5-1.51.11-1.9.11-2.86q0-11.76,0-23.53V65.54h10.58v33.7c0,.48.06.9-.67.89-3.18,0-6.37,0-9.55,0a2.76,2.76,0,0,1-.45-.07V97.52c-.26.3-.45.49-.61.7-2.8,3.57-8.92,2.94-11,.72a6.82,6.82,0,0,1-1.9-4.8c-.1-7.17-.13-14.35-.17-21.52,0-2.34,0-4.68,0-7.11"/><path class="cls-1" d="M334.79,65.5h10.53v1q0,12.68,0,25.35c0,.46.07.92.12,1.38.13,1,.51,1.35,1.44,1.36s1.37-.3,1.47-1.3c.11-1.18.15-2.36.15-3.55q0-11.58,0-23.17V65.53H359v34.54c-.23,0-.48.05-.73.05-3,0-6,0-9,0-.77,0-1-.23-.82-1a11.11,11.11,0,0,0,.1-1.78c-.28.33-.41.47-.52.62-2.6,3.55-8.08,3.16-10.45,1.51A6.35,6.35,0,0,1,335,94.91a22.1,22.1,0,0,1-.18-2.94q0-12.89,0-25.77Z"/><path class="cls-1" d="M275.22,100.12V65.54h10.59v2.6a24.62,24.62,0,0,1,2.13-2c3.1-2.28,8.07-1.63,10.17,1.25a6.7,6.7,0,0,1,1.16,3.49c.13,1.47.21,2.95.21,4.42,0,8,0,15.92,0,23.88,0,.25,0,.51,0,.83H288.94V99q0-12.29,0-24.57c0-.78-.11-1.55-.16-2.33A1.16,1.16,0,0,0,287.53,71,1.34,1.34,0,0,0,286,72a9.28,9.28,0,0,0-.2,2q0,12.51,0,25c0,1.11,0,1.11-1.14,1.11h-9.37"/><path class="cls-1" d="M464.12,83.74C462.5,84.91,461,86,461,88.13c0,1.61-.05,3.23,0,4.84a1.5,1.5,0,0,0,1.61,1.65c1,0,1.36-.39,1.52-1.59a5.1,5.1,0,0,0,0-.78q0-3.85,0-7.72c0-.21,0-.43-.06-.79m10.53,16.34h-10.1V97.33c-.17.1-.26.12-.29.17-2,3.47-5.87,3.73-9,2.73a5.36,5.36,0,0,1-4.07-5,82.26,82.26,0,0,1,0-8.31,4.12,4.12,0,0,1,2.45-3.74c2.24-1.06,4.52-2,6.78-3,.81-.37,1.62-.76,2.44-1.12a1.91,1.91,0,0,0,1.27-1.8,42.78,42.78,0,0,0-.16-4.67,2.16,2.16,0,0,0-1.06-1.42,1.31,1.31,0,0,0-1.9,1.2c-.1,1.73-.11,3.47-.16,5.2,0,.41,0,.81,0,1.3H451c0-1.33,0-2.67,0-4,.1-3.55,1.27-6.57,4.63-8.22a13.57,13.57,0,0,1,4.66-1.48,26.48,26.48,0,0,1,6.89.26c4.76.85,7.17,3.57,7.29,8.39.21,8.67.17,17.35.24,26a2.81,2.81,0,0,1-.06.35"/><path class="cls-1" d="M224.76,66.27H217.3v8h6.61c0,.34.08.59.08.84,0,2.11,0,4.22,0,6.34,0,.7-.23.89-.9.87-1.48,0-3,0-4.43,0s-1.45-.21-1.45,1.42c0,5.09,0,10.19,0,15.28,0,.84-.17,1.14-1.09,1.12-3-.07-5.9,0-8.85,0h-1V57.9h18.45Z"/><path class="cls-1" d="M329.49,66.32h2.75v5.46h-2.66c0,.29-.08.48-.08.68q0,10,0,20c0,.17,0,.35,0,.52.1,1.27.31,1.47,1.6,1.54.51,0,1,.08,1.65.13,0,1.75,0,3.44,0,5.14,0,.12-.3.35-.46.35-2.86,0-5.74.07-8.58-.26-3.14-.36-4.68-2.4-4.73-5.71-.06-4.46-.06-8.91-.08-13.37,0-2.6,0-5.21,0-7.81v-1.1h-2.16v-5.5h2.14V60.89a5.51,5.51,0,0,1,.62-.08c3.07,0,6.14,0,9.2,0,.61,0,.81.19.79.79,0,1.53,0,3.06,0,4.74"/><path class="cls-1" d="M272.46,76.91c-1.06.16-2.1.24-3.09.49a3.38,3.38,0,0,0-2.89,3.51c-.12,4.22-.15,8.45-.2,12.67,0,1.94,0,3.88,0,5.82,0,.4,0,.73-.57.73h-9.89V65.53h10.43c-.11,1.3-.22,2.58-.32,3.86,1.55-2.4,3.39-4.3,6.53-4.51Z"/><path class="cls-1" d="M363.27,65.52h10.39c-.1,1.31-.2,2.62-.3,3.9a40,40,0,0,1,2.64-3,5.62,5.62,0,0,1,3.87-1.49v12c-1.05.16-2.09.24-3.09.49a3.41,3.41,0,0,0-2.84,3.18c-.11,1.38-.22,2.77-.23,4.15,0,4.69,0,9.37,0,14.06v1.27H363.27Z"/><rect class="cls-1" x="303.51" y="65.53" width="10.69" height="34.54"/><path class="cls-1" d="M393,72.14A1.2,1.2,0,0,1,394.31,71a1.16,1.16,0,0,1,1.37,1c.17,1.88.22,3.77.33,5.76-1,0-1.86,0-2.69,0a.72.72,0,0,1-.49-.5c0-1.71,0-3.41.14-5.11m3.48,13.5v2.25c0,1.73-.05,3.47-.23,5.19a2.07,2.07,0,0,1-1,1.37c-1.22.62-2.26-.11-2.3-1.61-.08-2.83,0-6.66-.09-9.49h.93c3.85,0,7.7,0,11.55,0h1.17c-.08-3.52.19-6.9-.51-10.25a9.48,9.48,0,0,0-6.56-7.43,16.06,16.06,0,0,0-10.56,0,8.34,8.34,0,0,0-5.67,5.43,14.32,14.32,0,0,0-.77,4c-.12,4.22-.11,8.45-.1,12.68a33.49,33.49,0,0,0,.24,4.24,8.91,8.91,0,0,0,5.15,7.32,16.4,16.4,0,0,0,7.85,1.4,11.92,11.92,0,0,0,5.6-1.3,9.48,9.48,0,0,0,5.12-7.77c.15-2,0-4,0-6h-9.85"/><path class="cls-1" d="M509.47,99.74c0,.13-.29.36-.44.36-2.95-.07-5.91,0-8.83-.32a4.85,4.85,0,0,1-4.41-5.07c-.1-5.44-.12-10.88-.16-16.32,0-1.85,0-3.7,0-5.56v-1H494V77c-.85.09-1.65.15-2.44.27-2.38.34-3.61,1.55-3.66,3.94-.13,5.67-.13,11.34-.18,17,0,.6,0,1.21,0,1.88H477.24V65.52h10.45c-.11,1.32-.22,2.6-.33,3.88a40.59,40.59,0,0,1,2.73-3.07,5.54,5.54,0,0,1,3.83-1.43c0,.47.07.87.1,1.34h1.6v-5.5h10.59s0,4.59,0,4.72a1.63,1.63,0,0,0,0,.32c.06.45.33.59.89.55s1.25,0,2,0c0,1.75,0,3.39,0,5,0,.16-.35.43-.55.44-.72,0-1.44,0-2.28,0v1.11q0,9.1,0,18.23c0,.72.08,1.44.11,2.16a1.08,1.08,0,0,0,1.15,1.14l2,.15c0,1.75,0,3.44,0,5.14"/><path class="cls-1" d="M163.56,24.54c1.06-3.41,1.94-5.95,1.94-7,0-.82-.53-1.12-1.53-1.29l-2.36-.47a.9.9,0,0,1,.3-1.48c1.83.18,3.71.18,6,.18h3.65v.82c0,.65.59,2.83,2.89,8.55l5.95,14.67c1.18,2.82,2.18,5.36,2.88,6.65.42,0,.71-.7,1-1.65L189,28.73c1.77-5.6,2.83-9.78,2.83-10.9s-.12-1.48-1.47-1.71l-2.3-.35a1,1,0,0,1,.35-1.48c2.06.12,4.48.18,6.66.18s3.89-.06,5.6-.18a1.25,1.25,0,0,1,.06,1.48l-1.36.23a6.39,6.39,0,0,0-3.06,1.06c-.83.83-3,6.13-4.84,11.84l-4.24,13.2c-2,6.24-2.53,8.13-3.59,11.78a2.26,2.26,0,0,1-1.65.36c-.77-2.36-1.47-4.6-5.36-14L171.92,28.9c-1.59-3.88-3-7.77-3.94-9.72-.3,0-.89,1.95-1.89,5.19L161.5,39.68c-1.24,4.07-2.24,8.78-2.48,9.78-.47,1.95.89,2.18,2.89,2.42l1.35.18a1.09,1.09,0,0,1-.17,1.47q-2.66-.18-6.72-.18c-2.12,0-4.36.06-6.18.18a1,1,0,0,1-.12-1.47l1.47-.18a6.08,6.08,0,0,0,2.89-1c1-.77,2.18-3.77,4.48-11.25Z"/><path class="cls-1" d="M199.66,34a23.38,23.38,0,0,0-4.36,6.89,17.08,17.08,0,0,0,7.9-4.36,6.65,6.65,0,0,0,2.29-4,1.26,1.26,0,0,0-1.35-1.36c-.83,0-2.36.53-4.48,2.83M209,32.85c0,4.48-5.83,7.42-14.32,9.78a14.91,14.91,0,0,0-.82,5.24c0,2,1.24,3.36,2.83,3.36,2.12,0,3.59-1.18,6.18-3.42a.8.8,0,0,1,.77,1c-3.6,4.41-6.95,5.36-9.43,5.36-3.53,0-4.77-3.3-4.77-6.19,0-3.71,2.36-10.9,8.78-15.85,3.06-2.35,5.36-2.82,7.07-2.82A3.69,3.69,0,0,1,209,32.85"/><path class="cls-1" d="M217.76,37.51c-3.71,4.24-5.54,9.07-5.54,11.78,0,2.29,1.06,3.06,2.06,3.06s3.13-1.12,5.66-4c3.65-4.12,8-11.6,8-15a1.9,1.9,0,0,0-2.06-2.12c-1.59,0-4.48,2-8.13,6.19m-3.59,2.06h.11c4.13-6.25,8.08-10.25,12.49-10.25,3.48,0,5.07,2.29,5.07,5.3,0,4.06-2.83,9.19-7.6,13.84s-9.19,5.72-11.25,5.72c-3.18,0-4.72-2.06-4.72-5.42,0-2.77,1.3-7,3-11.61L218.11,19c1.24-3.3,1.42-4.31.59-4.89l-1.35-.95a.74.74,0,0,1,.17-.82,23.19,23.19,0,0,1,7.07-1.12l.24.35-3,7.84Z"/><path class="cls-1" d="M241.94,34.91l-2.53,7.43h.3a87.32,87.32,0,0,1,6.18-10c1.36-1.77,2.83-3.06,4.3-3.06,2.06,0,2.36,2,2.36,2.88a7.31,7.31,0,0,1-1.24,3.54c-.71.88-1.65.94-1.88-.3-.3-1.53-.65-2.3-1.24-2.3s-1.18.59-2.06,1.77c-3.6,4.6-6.9,11.79-10,18.56a1.06,1.06,0,0,1-1,.71c-.65,0-2.36-.24-1.94-1.53.76-2.36,4.47-12.79,6.06-18.56.18-.65.06-1.24-.47-1.24-1.53,0-3.12,1.65-4.18,3.06-.59.12-1-.23-.94-.94,1.88-3.18,4.12-5.65,7-5.65s1.88,4,1.35,5.59"/><path class="cls-1" d="M260.39,34.68C256.62,38,253,45.75,253,49.94c0,.7.35,1.11.89,1.11s2.35-.76,5.71-3.82a28.45,28.45,0,0,0,7.89-12.73,3.09,3.09,0,0,0-2.94-2.12c-1.42,0-2.36.65-4.18,2.3M270.64,28a2.46,2.46,0,0,1,2.88.88c-.88,2.18-6,15.2-7.89,20.57-.36,1-.06,1.35.41,1.35,1,0,2.71-1,6.07-3.95a.8.8,0,0,1,.83.77c-2.48,3.3-6.66,6.6-9.9,6.6a1.62,1.62,0,0,1-1.71-1.59,7.57,7.57,0,0,1,.59-2.3l1.94-5.3-.17-.06c-4.19,5.18-10.2,9.25-13,9.25-1.65,0-2.59-1.65-2.59-3.3,0-1.36,1.3-6.07,5.19-11.43,2.82-3.89,5.36-6.25,7.77-7.6a10.29,10.29,0,0,1,5.3-1.71,3,3,0,0,1,1.42.35A3.52,3.52,0,0,1,269,31.73Z"/><path class="cls-1" d="M288.89,32.67a2.07,2.07,0,0,1-1.06,1.83,1,1,0,0,1-1.12-.47c-1-1-1.76-1.89-3.59-1.89a2.4,2.4,0,0,0-2.42,2.36c0,1.24.3,2.47,2,5.36,1.47,2.48,2.35,4,2.24,6.54a8.19,8.19,0,0,1-3.07,5.66,9.09,9.09,0,0,1-5.95,2.12,3.46,3.46,0,0,1-3.59-3.13,2.86,2.86,0,0,1,.88-1.94,1.18,1.18,0,0,1,1.59,0c.77.88,2.54,2.36,4.07,2.36a3.21,3.21,0,0,0,2.82-3.36c0-1-.7-2.83-2.17-5.18a11.9,11.9,0,0,1-2.07-5.48c0-2.3,1-4,3.54-6.19a7.69,7.69,0,0,1,4.36-1.94,3.54,3.54,0,0,1,3.53,3.35"/><path class="cls-1" d="M307.07,31.85c-1.53,0-3.71,1.29-5.71,3a23.56,23.56,0,0,0-5.42,6.43c-.24.58-.18,1,.59.88,1.24-.12,4.53-1.12,8.66-3.83,2.47-1.65,3.77-3.71,3.77-4.95,0-.71-.53-1.53-1.89-1.53m-8.13-11.73c1.36-4.12,1.42-4.89.42-5.36l-1.07-.53a.52.52,0,0,1-.11-.88,33.31,33.31,0,0,1,7.18-2.12l.36.29c-.47,1.65-1.12,3.66-2.89,8.66l-6.07,17.44h.12a29.29,29.29,0,0,1,6-6.07,11.09,11.09,0,0,1,6.36-2.23c3.42,0,4.25,2,4.25,3.24,0,.7-.24,2.29-2.42,4.3-2.77,2.53-5.66,4.53-9.43,5.18-.41.24-.29.77-.17,1.12a34.78,34.78,0,0,0,2.18,5.54c.7,1.29,1.29,1.94,1.88,1.94.77,0,1.89-.76,3.54-2.77.53,0,.76.24.76.71-2.06,4.42-5,5.6-5.95,5.6s-1.77-.71-2.71-2.36a57.93,57.93,0,0,1-2.71-6.3c-.47-1.54-1.12-2.18-2.18-2s-1.47.59-2.18,2.36l-3.06,7.48c-.24.53-.47.77-1,.77s-2.36-.18-1.89-1.53Z"/><path class="cls-1" d="M323.09,34.68c-3.77,3.35-7.36,11.07-7.36,15.26,0,.7.35,1.11.88,1.11s2.36-.76,5.72-3.82a28.45,28.45,0,0,0,7.89-12.73,3.09,3.09,0,0,0-2.94-2.12c-1.42,0-2.36.65-4.19,2.3M333.34,28a2.47,2.47,0,0,1,2.89.88c-.88,2.18-6,15.2-7.89,20.57-.36,1-.06,1.35.41,1.35,1,0,2.71-1,6.07-3.95a.79.79,0,0,1,.82.77c-2.47,3.3-6.66,6.6-9.9,6.6a1.62,1.62,0,0,1-1.7-1.59,7.42,7.42,0,0,1,.58-2.3l1.95-5.3-.18-.06c-4.18,5.18-10.19,9.25-13,9.25-1.65,0-2.59-1.65-2.59-3.3,0-1.36,1.3-6.07,5.18-11.43,2.83-3.89,5.37-6.25,7.78-7.6a10.29,10.29,0,0,1,5.3-1.71,3,3,0,0,1,1.42.35,3.43,3.43,0,0,1,1.17,1.24Z"/></g></g></svg>